<svg xmlns="http://www.w3.org/2000/svg" viewBox="0 0 679 114.7" >
	<path transform="rotate(-45.001 639.226 74.991)" fill="#00a5b0" d="M624.6 61.1h29.3v27.8h-29.3z"/>
	<path fill="#00a5b0" d="M618 74.5l20.7-20.7-13.2-13.2c-5.7-5.7-15-5.7-20.7 0-5.7 5.7-5.7 15 0 20.7L618 74.5zM660.5 75.5l-20.7 20.7 13.2 13.2c5.7 5.7 15 5.7 20.7 0 5.7-5.7 5.7-15 0-20.7l-13.2-13.2z"/>
	<path opacity=".75" fill="#00a888" stroke="#fff" stroke-width="2" stroke-miterlimit="10" d="M673.7 40.5c5.7 5.7 5.7 15 0 20.7l-48.2 48.2c-5.7 5.7-15 5.7-20.7 0-5.7-5.7-5.7-15 0-20.7L653 40.5c5.7-5.7 15-5.7 20.7 0z"/>
	<path opacity=".4" fill="#00a888" d="M673.7 40.5c5.7 5.7 5.7 15 0 20.7l-48.2 48.2c-5.7 5.7-15 5.7-20.7 0-5.7-5.7-5.7-15 0-20.7L653 40.5c5.7-5.7 15-5.7 20.7 0z"/>
	<path fill="#ffffff" d="M51 33c9.1 0 15.6 2.6 19.6 7.8 3.9 5.2 5.9 14.1 5.9 26.7v36.4c0 2.3-.9 4.3-2.6 6-1.7 1.7-3.7 2.6-6 2.6H57.3c-2.3 0-4.3-.8-6-2.6-1.7-1.7-2.5-3.7-2.5-6V67.5c0-4.6-.7-7.7-2-9.4-1.3-1.7-3.7-2.6-7-2.6-2.8 0-5.4 1.1-7.7 3.3-2.4 2.2-3.5 4.6-3.5 7.2v37.9c0 2.3-.9 4.3-2.6 6-1.7 1.7-3.7 2.6-6 2.6H8.5c-2.3 0-4.3-.8-6-2.6-1.7-1.7-2.5-3.7-2.5-6V43.1c0-2.3.8-4.3 2.5-6 1.7-1.7 3.7-2.6 6-2.6h10.2c2.4 0 4.4.8 6.1 2.5 1.7 1.6 2.6 3.7 2.7 6.1v1.2c0 .1 0 .1.2.1s.3 0 .3-.1C34.2 36.8 41.9 33 51 33zM100 43.7c7.1-7.1 17-10.7 29.9-10.7 12.8 0 22.7 3.6 29.8 10.7 7.1 7.2 10.7 17.1 10.7 29.8s-3.6 22.6-10.7 29.8c-7.1 7.2-17.1 10.7-29.8 10.7-12.8 0-22.8-3.6-29.9-10.7-7.1-7.1-10.6-17.1-10.6-29.8s3.5-22.6 10.6-29.8zm20.7 46.1c1.9 3.2 5 4.7 9.2 4.7 4.2 0 7.2-1.6 9.1-4.7 1.9-3.1 2.9-8.6 2.9-16.3 0-7.7-1-13.1-2.9-16.3-1.9-3.2-5-4.7-9.1-4.7-4.2 0-7.3 1.6-9.2 4.7-1.9 3.1-2.8 8.6-2.8 16.3 0 7.7.9 13.1 2.8 16.3zM235 33c9.1 0 15.6 2.6 19.6 7.8 3.9 5.2 5.9 14.1 5.9 26.7v36.4c0 2.3-.9 4.3-2.5 6-1.7 1.7-3.7 2.6-6 2.6h-10.7c-2.3 0-4.3-.8-6-2.6-1.7-1.7-2.5-3.7-2.5-6V67.5c0-4.6-.7-7.7-2-9.4-1.3-1.7-3.7-2.6-7-2.6-2.8 0-5.4 1.1-7.7 3.3-2.4 2.2-3.5 4.6-3.5 7.2v37.9c0 2.3-.9 4.3-2.6 6-1.7 1.7-3.7 2.6-6 2.6h-11.4c-2.3 0-4.3-.8-6-2.6-1.7-1.7-2.5-3.7-2.5-6V43.1c0-2.3.8-4.3 2.5-6 1.7-1.7 3.7-2.6 6-2.6h10.2c2.4 0 4.4.8 6.1 2.5 1.7 1.6 2.6 3.7 2.7 6.1v1.2c0 .1 0 .1.2.1s.3 0 .3-.1C218.3 36.8 225.9 33 235 33zM312.4 33c13.2 0 22.7 2.4 28.6 7.2 5.9 4.8 8.9 12.4 8.9 22.8v40.9c0 2.3-.9 4.3-2.5 6-1.7 1.7-3.7 2.6-6 2.6h-9.5c-2.4 0-4.5-.8-6.2-2.5-1.7-1.6-2.6-3.7-2.7-6.1v-1.2c0-.1-.1-.1-.1-.1-.1 0-.2.1-.3.1-6.4 7.5-14.3 11.2-23.7 11.2-7 0-12.8-2.2-17.2-6.7-4.5-4.4-6.8-10.2-6.8-17.3 0-18 13.5-27 40.5-27h4.6c.9 0 1.4-.4 1.4-1.4v-.1c0-6-3.5-9-10.5-9-6 0-13.8.9-23.2 2.7-2.1.4-4-.1-5.7-1.4-1.7-1.3-2.5-3.1-2.5-5.3V46c0-2.5.8-4.7 2.3-6.8 1.5-2 3.5-3.2 5.9-3.6 9.9-1.7 18.1-2.6 24.7-2.6zm9 48v-.9c0-.9-.5-1.4-1.4-1.4h-4.6c-10 0-15 3-15 9 0 4.5 2.5 6.8 7.5 6.8 3.9 0 7.1-1.2 9.7-3.7 2.6-2.4 3.8-5.7 3.8-9.8zM464.5 33c9.2 0 16.5 3.5 21.9 10.4 5.4 7 8.1 17 8.1 30.1 0 12.8-2.8 22.8-8.5 29.9-5.7 7.1-12.8 10.6-21.5 10.6-9.6 0-17.5-3.8-23.7-11.2-.1-.1-.2-.1-.3-.1-.1 0-.2.1-.2.1v1.2c-.1 2.4-1 4.4-2.7 6.1-1.7 1.7-3.8 2.5-6.1 2.5H422c-2.3 0-4.3-.8-6-2.6-1.7-1.7-2.5-3.7-2.5-6V8.6c0-2.3.8-4.3 2.5-6 1.7-1.7 3.7-2.6 6-2.6h11.4c2.3 0 4.3.9 6 2.6 1.7 1.7 2.5 3.7 2.5 6v33.3c0 .1 0 .1.1.1s.2 0 .3-.1c6.9-5.9 14.2-8.9 22.2-8.9zM454 93c3.9 0 7-1.6 9.3-4.9 2.3-3.2 3.5-8.1 3.5-14.6 0-13-4.3-19.5-12.8-19.5-3.4 0-6.4 1.2-8.9 3.4-2.6 2.3-3.8 4.9-3.8 7.8v16.5c0 2.9 1.3 5.5 3.8 7.8 2.6 2.4 5.5 3.5 8.9 3.5zM515.8 43.7c7.1-7.1 17-10.7 29.9-10.7 12.8 0 22.7 3.6 29.9 10.7 7.1 7.2 10.7 17.1 10.7 29.8s-3.6 22.6-10.7 29.8c-7.1 7.2-17.1 10.7-29.9 10.7-12.8 0-22.8-3.6-29.9-10.7-7.1-7.1-10.6-17.1-10.6-29.8s3.5-22.6 10.6-29.8zm20.7 46.1c1.9 3.2 5 4.7 9.2 4.7s7.2-1.6 9.1-4.7c1.9-3.1 2.9-8.6 2.9-16.3 0-7.7-1-13.1-2.9-16.3-1.9-3.2-4.9-4.7-9.1-4.7s-7.3 1.6-9.2 4.7c-1.9 3.1-2.8 8.6-2.8 16.3 0 7.7.9 13.1 2.8 16.3z"/>
</svg>